<?xml version="1.0" encoding="UTF-8" standalone="no"?>
<!DOCTYPE svg PUBLIC "-//W3C//DTD SVG 1.1//EN"
 "http://www.w3.org/Graphics/SVG/1.1/DTD/svg11.dtd">
<!-- Generated by graphviz version 2.26.3 (20100126.1600)
 -->
<!-- Title: G Pages: 1 -->
<svg width="406pt" height="258pt"
 viewBox="0.00 0.00 406.00 258.00" xmlns="http://www.w3.org/2000/svg" xmlns:xlink="http://www.w3.org/1999/xlink">
<g id="graph1" class="graph" transform="scale(1 1) rotate(0) translate(4 254)">
<title>G</title>
<polygon fill="white" stroke="white" points="-4,5 -4,-254 403,-254 403,5 -4,5"/>
<g id="graph2" class="cluster"><title>cluster_global</title>
<polyline fill="none" stroke="gray" points="220,-8 378,-8 "/>
<path fill="none" stroke="gray" d="M378,-8C384,-8 390,-14 390,-20"/>
<polyline fill="none" stroke="gray" points="390,-20 390,-230 "/>
<path fill="none" stroke="gray" d="M390,-230C390,-236 384,-242 378,-242"/>
<polyline fill="none" stroke="gray" points="378,-242 220,-242 "/>
<path fill="none" stroke="gray" d="M220,-242C214,-242 208,-236 208,-230"/>
<polyline fill="none" stroke="gray" points="208,-230 208,-20 "/>
<path fill="none" stroke="gray" d="M208,-20C208,-14 214,-8 220,-8"/>
<text text-anchor="middle" x="299" y="-228.1" font-family="Times,serif" font-size="11.00" fill="gray">global</text>
</g>
<!-- \\Data_source -->
<g id="node2" class="node"><title>\\Data_source</title>
<a xlink:href="controllers.data_source.html" xlink:title="Data_source" target="_parent">
<polygon fill="none" stroke="black" points="344,-214 254,-214 254,-178 344,-178 344,-214"/>
<text text-anchor="middle" x="299" y="-192.6" font-family="Courier,monospace" font-size="11.00">Data_source</text>
</a>
</g>
<!-- \\MX_Controller -->
<g id="node7" class="node"><title>\\MX_Controller</title>
<ellipse fill="none" stroke="black" cx="72" cy="-196" rx="70.9937" ry="18"/>
<text text-anchor="middle" x="72" y="-190.9" font-family="Times,serif" font-size="14.00" fill="gray">\MX_Controller</text>
</g>
<!-- \\Data_source&#45;&gt;\\MX_Controller -->
<g id="edge3" class="edge"><title>\\Data_source&#45;&gt;\\MX_Controller</title>
<path fill="none" stroke="black" d="M253.881,-196C225.407,-196 187.78,-196 154.14,-196"/>
<polygon fill="none" stroke="black" points="153.843,-192.5 143.843,-196 153.843,-199.5 153.843,-192.5"/>
</g>
<!-- \\_data_source -->
<g id="node3" class="node"><title>\\_data_source</title>
<a xlink:href="models._data_source.html" xlink:title="_data_source" target="_parent">
<polygon fill="none" stroke="black" points="347,-160 251,-160 251,-124 347,-124 347,-160"/>
<text text-anchor="middle" x="299" y="-138.6" font-family="Courier,monospace" font-size="11.00">_data_source</text>
</a>
</g>
<!-- \\_data_source_attribute -->
<g id="node4" class="node"><title>\\_data_source_attribute</title>
<a xlink:href="models._data_source.html" xlink:title="_data_source_attribute" target="_parent">
<polygon fill="none" stroke="black" points="381,-106 217,-106 217,-70 381,-70 381,-106"/>
<text text-anchor="middle" x="299" y="-84.6" font-family="Courier,monospace" font-size="11.00">_data_source_attribute</text>
</a>
</g>
<!-- \\Data_sources -->
<g id="node5" class="node"><title>\\Data_sources</title>
<a xlink:href="models.data_sources.html" xlink:title="Data_sources" target="_parent">
<polygon fill="none" stroke="black" points="347,-52 251,-52 251,-16 347,-16 347,-52"/>
<text text-anchor="middle" x="299" y="-30.6" font-family="Courier,monospace" font-size="11.00">Data_sources</text>
</a>
</g>
<!-- \\CI_Model -->
<g id="node9" class="node"><title>\\CI_Model</title>
<ellipse fill="none" stroke="black" cx="72" cy="-34" rx="51.9954" ry="18"/>
<text text-anchor="middle" x="72" y="-28.9" font-family="Times,serif" font-size="14.00" fill="gray">\CI_Model</text>
</g>
<!-- \\Data_sources&#45;&gt;\\CI_Model -->
<g id="edge5" class="edge"><title>\\Data_sources&#45;&gt;\\CI_Model</title>
<path fill="none" stroke="black" d="M250.859,-34C216.837,-34 170.928,-34 134.141,-34"/>
<polygon fill="none" stroke="black" points="134.025,-30.5001 124.025,-34 134.025,-37.5001 134.025,-30.5001"/>
</g>
</g>
</svg>
